<svg width="27" height="27" viewBox="0 0 27 27" fill="none" xmlns="http://www.w3.org/2000/svg">
<path d="M0.75 13.4167C0.75 7.44554 0.75 4.45998 2.60499 2.60499C4.45998 0.75 7.44554 0.75 13.4167 0.75C19.3878 0.75 22.3734 0.75 24.2283 2.60499C26.0833 4.45998 26.0833 7.44554 26.0833 13.4167C26.0833 19.3878 26.0833 22.3734 24.2283 24.2283C22.3734 26.0833 19.3878 26.0833 13.4167 26.0833C7.44554 26.0833 4.45998 26.0833 2.60499 24.2283C0.75 22.3734 0.75 19.3878 0.75 13.4167Z" stroke="white" stroke-width="1.5" stroke-linejoin="round"/>
<path d="M12.084 6.75L13.4173 8.97222M20.084 20.0833L15.284 12.0833" stroke="white" stroke-width="1.5" stroke-linecap="round" stroke-linejoin="round"/>
<path d="M14.75 6.75L6.75 20.0833" stroke="white" stroke-width="1.5" stroke-linecap="round" stroke-linejoin="round"/>
<path d="M6.08398 16.0835H14.084M20.7507 16.0835L18.084 16.0835" stroke="white" stroke-width="1.5" stroke-linecap="round" stroke-linejoin="round"/>
</svg>
